<svg xmlns="http://www.w3.org/2000/svg" viewBox="0 0 50 50">
    <defs>
        <style>.cls-1{fill:#7462E0;}.cls-2{fill:#3b3529;}.cls-3{fill:#fff;}</style>
    </defs>
    <title>Recurso 5</title>
    <g id="Capa_2" data-name="Capa 2">
        <g id="Layer_1" data-name="Layer 1">
            <path class="cls-1" d="M50,25c0,.83,0,1.64-.12,2.44,0,.32-.07.64-.11,1a25,25,0,0,1-22.9,21.53c-.37,0-.73,0-1.1.06H25A25,25,0,1,1,50,25Z" />
            <path class="cls-2" d="M29,20.68a1.27,1.27,0,0,0,0-1.82l-5.13-5.13a1.29,1.29,0,0,0-1.82,0l-.57.57a1.27,1.27,0,0,0-.31.52l-.4-.4a1.46,1.46,0,0,0-2.08,0l-.77.77a1.48,1.48,0,0,0,0,2.08l2.34,2.35-7.13,7.13L10.83,24.4a1.48,1.48,0,0,0-2.08,0L8,25.18a1.46,1.46,0,0,0,0,2.08l.4.4a1.3,1.3,0,0,0-.53.31l-.56.56a1.29,1.29,0,0,0,0,1.82l5.13,5.13a1.28,1.28,0,0,0,1.82,0l.57-.56a1.27,1.27,0,0,0,.31-.52l.4.4a1.48,1.48,0,0,0,1,.43,1.51,1.51,0,0,0,1-.43l.77-.77a1.46,1.46,0,0,0,0-2.08L16,29.6l7.13-7.13,2.34,2.34a1.48,1.48,0,0,0,1,.44,1.45,1.45,0,0,0,1-.44l.78-.77a1.48,1.48,0,0,0,.43-1,1.5,1.5,0,0,0-.43-1l-.4-.4a1.27,1.27,0,0,0,.52-.31ZM14.31,34.42l-.56.57a.59.59,0,0,1-.83,0L7.78,29.86a.6.6,0,0,1,0-.83l.57-.57a.6.6,0,0,1,.83,0L11.75,31l2.56,2.56A.59.59,0,0,1,14.31,34.42Zm3.57-2a.77.77,0,0,1,0,1.09l-.78.77a.76.76,0,0,1-1.09,0l-3.77-3.77L8.47,26.76a.77.77,0,0,1,0-1.09l.77-.77a.8.8,0,0,1,.55-.23.78.78,0,0,1,.55.23ZM28.09,23a.76.76,0,0,1-.23.55l-.77.77a.77.77,0,0,1-1.09,0l-7.54-7.54a.77.77,0,0,1,0-1.09l.77-.78a.79.79,0,0,1,1.09,0l7.54,7.55A.74.74,0,0,1,28.09,23Zm-.94-2.24L22,15.62a.59.59,0,0,1,0-.83l.57-.56a.59.59,0,0,1,.83,0l5.13,5.13a.59.59,0,0,1,0,.83l-.57.57A.6.6,0,0,1,27.15,20.76Z" />
            <path class="cls-3" d="M17.88,33.53l-.78.77a.76.76,0,0,1-1.09,0l-3.77-3.77L8.47,26.76a.77.77,0,0,1,0-1.09l.77-.77a.8.8,0,0,1,.55-.23.78.78,0,0,1,.55.23l7.54,7.54A.77.77,0,0,1,17.88,33.53Z" />
            <path class="cls-3" d="M14.31,34.42l-.56.57a.59.59,0,0,1-.83,0L7.78,29.86a.6.6,0,0,1,0-.83l.57-.57a.6.6,0,0,1,.83,0L11.75,31l2.56,2.56A.59.59,0,0,1,14.31,34.42Z" />
            <rect class="cls-3" x="24.3" y="13.28" width="1.97" height="8.43" rx="0.59" transform="translate(-4.97 22.99) rotate(-44.97)" />
            <path class="cls-3" d="M28.09,23a.76.76,0,0,1-.23.55l-.77.77a.77.77,0,0,1-1.09,0l-7.54-7.54a.77.77,0,0,1,0-1.09l.77-.78a.79.79,0,0,1,1.09,0l7.54,7.55A.74.74,0,0,1,28.09,23Z" />
            <path class="cls-2" d="M41.84,22.28a1.26,1.26,0,0,0,0-1.81l-5.13-5.14a1.29,1.29,0,0,0-1.82,0l-.57.57a1.27,1.27,0,0,0-.31.52l-.39-.4a1.47,1.47,0,0,0-2.09,0l-.77.77a1.48,1.48,0,0,0,0,2.08l2.34,2.35L26,28.35,23.63,26a1.47,1.47,0,0,0-2.08,0l-.77.77a1.47,1.47,0,0,0,0,2.09l.4.4a1.21,1.21,0,0,0-.52.31l-.57.56a1.28,1.28,0,0,0,0,1.82l5.13,5.13a1.28,1.28,0,0,0,1.82,0l.57-.56a1.27,1.27,0,0,0,.31-.52l.4.4a1.48,1.48,0,0,0,1,.43,1.51,1.51,0,0,0,1-.43l.77-.78a1.46,1.46,0,0,0,0-2.08L28.83,31.2,36,24.07l2.34,2.34a1.46,1.46,0,0,0,1,.44,1.45,1.45,0,0,0,1-.44l.78-.77a1.47,1.47,0,0,0,0-2.08l-.4-.4a1.27,1.27,0,0,0,.52-.31ZM27.11,36l-.56.57a.59.59,0,0,1-.83,0l-5.14-5.13a.59.59,0,0,1-.17-.42.58.58,0,0,1,.17-.41l.57-.57a.6.6,0,0,1,.83,0l5.13,5.13A.59.59,0,0,1,27.11,36Zm3.57-2a.77.77,0,0,1,0,1.09l-.78.77a.76.76,0,0,1-1.09,0l-1.2-1.2-5.14-5.13-1.2-1.21a.77.77,0,0,1,0-1.09l.78-.77a.73.73,0,0,1,.54-.23.76.76,0,0,1,.55.23l3.77,3.77,1.18,1.18ZM40.89,24.6a.76.76,0,0,1-.23.55l-.77.77a.77.77,0,0,1-1.09,0l-2.59-2.59h0L35,22.15l-3.78-3.77a.77.77,0,0,1,0-1.09l.78-.78a.77.77,0,0,1,1.09,0l7.54,7.54A.76.76,0,0,1,40.89,24.6ZM40,22.36l-5.13-5.14a.59.59,0,0,1,0-.83l.57-.56a.56.56,0,0,1,.82,0L41.35,21a.59.59,0,0,1,0,.83l-.57.57A.6.6,0,0,1,40,22.36Z" />
            <path class="cls-3" d="M41.35,21.79l-.57.57a.6.6,0,0,1-.83,0l-5.13-5.14a.59.59,0,0,1,0-.83l.57-.56a.56.56,0,0,1,.82,0L41.35,21A.59.59,0,0,1,41.35,21.79Z" />
            <path class="cls-3" d="M40.89,24.6a.76.76,0,0,1-.23.55l-.77.77a.77.77,0,0,1-1.09,0l-2.59-2.59h0L35,22.15l-3.78-3.77a.77.77,0,0,1,0-1.09l.78-.78a.77.77,0,0,1,1.09,0l7.54,7.54A.76.76,0,0,1,40.89,24.6Z" />
            <path class="cls-3" d="M30.68,35.13l-.78.77a.76.76,0,0,1-1.09,0l-1.2-1.2-5.14-5.13-1.2-1.21a.77.77,0,0,1,0-1.09l.78-.77a.73.73,0,0,1,.54-.23.76.76,0,0,1,.55.23l3.77,3.77,1.18,1.18L30.68,34A.77.77,0,0,1,30.68,35.13Z" />
            <path class="cls-3" d="M27.11,36l-.56.57a.59.59,0,0,1-.83,0l-5.14-5.13a.59.59,0,0,1-.17-.42.58.58,0,0,1,.17-.41l.57-.57a.6.6,0,0,1,.83,0l5.13,5.13A.59.59,0,0,1,27.11,36Z" />
        </g>
    </g>
</svg>